<svg width="16" height="16" viewBox="0 0 16 16" fill="none" xmlns="http://www.w3.org/2000/svg">
<path d="M7.99992 6.0387C7.61203 6.0387 7.23285 6.15373 6.91033 6.36923C6.58781 6.58473 6.33643 6.89103 6.18799 7.24939C6.03955 7.60776 6.00071 8.00209 6.07639 8.38253C6.15206 8.76297 6.33885 9.11243 6.61313 9.38671C6.88741 9.66099 7.23687 9.84777 7.61731 9.92345C7.99774 9.99912 8.39208 9.96028 8.75044 9.81184C9.10881 9.66341 9.41511 9.41203 9.63061 9.08951C9.84611 8.76699 9.96113 8.38781 9.96113 7.99992C9.96113 7.74237 9.91041 7.48734 9.81184 7.24939C9.71328 7.01145 9.56882 6.79525 9.38671 6.61313C9.20459 6.43102 8.98839 6.28655 8.75044 6.18799C8.5125 6.08943 8.25747 6.0387 7.99992 6.0387V6.0387ZM15.8527 4.10121C15.8485 3.49052 15.7361 2.8854 15.5205 2.31398C15.3618 1.89585 15.1162 1.51612 14.8 1.19987C14.4837 0.883619 14.104 0.638025 13.6859 0.479295C13.1144 0.26377 12.5093 0.151314 11.8986 0.147154C10.8785 0.0917968 10.578 0.0917969 7.99992 0.0917969C5.42187 0.0917969 5.12136 0.0917968 4.10121 0.147154C3.49052 0.151314 2.8854 0.26377 2.31398 0.479295C1.89585 0.638025 1.51612 0.883619 1.19987 1.19987C0.883619 1.51612 0.638025 1.89585 0.479295 2.31398C0.26377 2.8854 0.151314 3.49052 0.147154 4.10121C0.0917968 5.12136 0.0917969 5.42187 0.0917969 7.99992C0.0917969 10.578 0.0917968 10.8785 0.147154 11.8986C0.155666 12.5115 0.26797 13.1184 0.479295 13.6938C0.637321 14.11 0.882711 14.4875 1.19893 14.8009C1.51383 15.1191 1.89437 15.3646 2.31398 15.5205C2.8854 15.7361 3.49052 15.8485 4.10121 15.8527C5.12136 15.908 5.42187 15.908 7.99992 15.908C10.578 15.908 10.8785 15.908 11.8986 15.8527C12.5093 15.8485 13.1144 15.7361 13.6859 15.5205C14.1055 15.3646 14.486 15.1191 14.8009 14.8009C15.1171 14.4875 15.3625 14.11 15.5205 13.6938C15.7359 13.1195 15.8483 12.5119 15.8527 11.8986C15.908 10.8785 15.908 10.578 15.908 7.99992C15.908 5.42187 15.908 5.12136 15.8527 4.10121V4.10121ZM13.844 10.4277C13.8186 10.9157 13.7145 11.3964 13.5356 11.8512C13.3821 12.2305 13.1539 12.5751 12.8645 12.8645C12.5751 13.1539 12.2305 13.3821 11.8512 13.5356C11.3921 13.7045 10.9087 13.798 10.4198 13.8124C9.79506 13.8124 9.62899 13.8124 7.99992 13.8124C6.37085 13.8124 6.20477 13.8124 5.58003 13.8124C5.0911 13.798 4.60772 13.7045 4.14866 13.5356C3.7565 13.3899 3.40236 13.1574 3.1127 12.8555C2.82616 12.5718 2.60487 12.2291 2.46423 11.8512C2.29465 11.3926 2.20375 10.9087 2.19536 10.4198C2.19536 9.79506 2.19536 9.62899 2.19536 7.99992C2.19536 6.37085 2.19536 6.20477 2.19536 5.58003C2.20375 5.09117 2.29465 4.60724 2.46423 4.14866C2.60997 3.7565 2.84246 3.40236 3.14433 3.1127C3.42929 2.82771 3.77165 2.60665 4.14866 2.46423C4.60772 2.29532 5.0911 2.20185 5.58003 2.18745V2.18745C6.20477 2.18745 6.37085 2.18745 7.99992 2.18745C9.62899 2.18745 9.79506 2.18745 10.4198 2.18745C10.9087 2.20185 11.3921 2.29532 11.8512 2.46423C12.2433 2.60997 12.5975 2.84246 12.8871 3.14433C13.1737 3.42803 13.395 3.77076 13.5356 4.14866C13.7045 4.60772 13.798 5.0911 13.8124 5.58003C13.8124 6.20477 13.8124 6.37085 13.8124 7.99992C13.8124 9.62899 13.8677 9.79506 13.844 10.4198V10.4277ZM12.5787 4.54407C12.4846 4.28862 12.3361 4.05665 12.1436 3.86414C11.9511 3.67163 11.7191 3.52318 11.4637 3.42902C11.1129 3.30744 10.7435 3.24855 10.3724 3.25505C9.75552 3.25505 9.58154 3.25505 7.99992 3.25505C6.41829 3.25505 6.24432 3.25505 5.62748 3.25505C5.25443 3.25869 4.88496 3.3283 4.53616 3.46066C4.28463 3.55054 4.0551 3.69293 3.86285 3.87836C3.6706 4.0638 3.52002 4.28803 3.42112 4.53616C3.30627 4.88836 3.25017 5.25706 3.25505 5.62748C3.25505 6.24432 3.25505 6.41829 3.25505 7.99992C3.25505 9.58154 3.25505 9.75552 3.25505 10.3724C3.26289 10.745 3.33236 11.1137 3.46066 11.4637C3.55481 11.7191 3.70327 11.9511 3.89577 12.1436C4.08828 12.3361 4.32026 12.4846 4.5757 12.5787C4.91312 12.7028 5.26818 12.7722 5.62748 12.7843V12.7843C6.24432 12.7843 6.41829 12.7843 7.99992 12.7843C9.58154 12.7843 9.75552 12.7843 10.3724 12.7843C10.7454 12.7807 11.1149 12.7111 11.4637 12.5787C11.7191 12.4846 11.9511 12.3361 12.1436 12.1436C12.3361 11.9511 12.4846 11.7191 12.5787 11.4637C12.7111 11.1149 12.7807 10.7454 12.7843 10.3724C12.7843 9.75552 12.7843 9.58154 12.7843 7.99992C12.7843 6.41829 12.7843 6.24432 12.7843 5.62748C12.7846 5.25406 12.7148 4.8839 12.5787 4.53616V4.54407ZM7.99992 11.0208C7.60358 11.0208 7.21114 10.9426 6.84507 10.7907C6.479 10.6388 6.1465 10.4162 5.86661 10.1355C5.58672 9.85492 5.36495 9.52184 5.214 9.15537C5.06305 8.7889 4.98588 8.39626 4.98692 7.99992V7.99992C4.98693 7.4021 5.1643 6.81773 5.49659 6.32078C5.82888 5.82382 6.30115 5.43663 6.85361 5.20822C7.40607 4.97981 8.01388 4.92045 8.60009 5.03765C9.1863 5.15486 9.72456 5.44336 10.1467 5.86663C10.5689 6.2899 10.856 6.82891 10.9716 7.41543C11.0873 8.00195 11.0264 8.6096 10.7965 9.16146C10.5666 9.71332 10.1782 10.1846 9.68039 10.5156C9.18257 10.8465 8.59773 11.0224 7.99992 11.0208V11.0208ZM11.1632 5.57213C10.9884 5.55362 10.8266 5.47108 10.709 5.34039C10.5914 5.20971 10.5264 5.04014 10.5264 4.86435C10.5264 4.68856 10.5914 4.51898 10.709 4.3883C10.8266 4.25762 10.9884 4.17508 11.1632 4.15657V4.15657C11.338 4.17508 11.4998 4.25762 11.6173 4.3883C11.7349 4.51898 11.8 4.68856 11.8 4.86435C11.8 5.04014 11.7349 5.20971 11.6173 5.34039C11.4998 5.47108 11.338 5.55362 11.1632 5.57213Z" fill="#D6E9ED"/>
</svg>
