<svg width="16" height="14" viewBox="0 0 16 14" fill="none" xmlns="http://www.w3.org/2000/svg">
<g clip-path="url(#clip0_165_782)">
<path fill-rule="evenodd" clip-rule="evenodd" d="M15.3309 13.6629H12.09V8.97678C12.09 7.75043 11.5835 6.91298 10.4684 6.91298C9.616 6.91298 9.14179 7.47817 8.92118 8.02269C8.8382 8.21797 8.85119 8.49024 8.85119 8.7625V13.6629H5.64069C5.64069 13.6629 5.68201 5.36204 5.64069 4.60757H8.85119V6.02887C9.04114 5.40737 10.0669 4.52059 11.7038 4.52059C13.7349 4.52059 15.3309 5.82293 15.3309 8.62787V13.6629ZM2.39419 3.47486H2.3732C1.3388 3.47486 0.667969 2.78271 0.667969 1.90527C0.667969 1.01083 1.35846 0.333008 2.41385 0.333008C3.46825 0.333008 4.11675 1.00917 4.13707 1.9026C4.13707 2.78004 3.46825 3.47486 2.39419 3.47486ZM1.03787 4.60757H3.8958V13.6629H1.03787V4.60757Z" fill="#D6E9ED"/>
</g>
<defs>
<clipPath id="clip0_165_782">
<rect width="14.6629" height="13.3299" fill="white" transform="translate(0.667969 0.333008)"/>
</clipPath>
</defs>
</svg>
