<svg width="26" height="26" viewBox="0 0 26 26" fill="none" xmlns="http://www.w3.org/2000/svg">
<path d="M13.8042 4.20213L16.1164 8.88662C16.1807 9.01697 16.2758 9.12972 16.3934 9.21515C16.511 9.30059 16.6476 9.35614 16.7915 9.37703L21.961 10.1283C22.1266 10.1524 22.2822 10.2223 22.4101 10.3302C22.538 10.438 22.6332 10.5795 22.6849 10.7387C22.7366 10.8978 22.7427 11.0683 22.7025 11.2307C22.6624 11.3931 22.5776 11.5411 22.4577 11.6579L18.7164 15.3041C18.5048 15.5103 18.4089 15.8071 18.4582 16.0976L19.3413 21.2465C19.3695 21.4114 19.3511 21.5809 19.2881 21.7358C19.225 21.8907 19.1199 22.025 18.9845 22.1233C18.8492 22.2216 18.689 22.2801 18.5222 22.2921C18.3554 22.3042 18.1885 22.2693 18.0404 22.1915L13.416 19.76C13.2872 19.6925 13.144 19.6572 12.9986 19.6572C12.8533 19.6572 12.71 19.6925 12.5813 19.76L7.95688 22.1915C7.80882 22.2693 7.64193 22.3042 7.47509 22.2921C7.30824 22.2801 7.14809 22.2216 7.01275 22.1233C6.87741 22.025 6.77227 21.8907 6.70922 21.7358C6.64618 21.5809 6.62774 21.4114 6.65599 21.2465L7.53909 16.0976C7.56368 15.9543 7.55301 15.8072 7.50803 15.669C7.46304 15.5307 7.38508 15.4055 7.28088 15.3041L3.53957 11.6579C3.4197 11.5411 3.33489 11.3931 3.29474 11.2307C3.2546 11.0683 3.26071 10.8978 3.31239 10.7387C3.36407 10.5795 3.45926 10.438 3.58718 10.3302C3.71511 10.2223 3.87067 10.1524 4.03626 10.1283L9.20578 9.37703C9.34964 9.35614 9.48625 9.30059 9.60386 9.21515C9.72147 9.12972 9.81654 9.01697 9.88088 8.88662L12.1931 4.20213C12.5248 3.536 13.4752 3.536 13.8042 4.20213Z" fill="#ED9726"/>
</svg>
