<?xml version="1.0" encoding="utf-8"?><svg xmlns="http://www.w3.org/2000/svg" xmlns:xlink="http://www.w3.org/1999/xlink"><symbol viewBox="0 0 16 20" id="pin" xmlns="http://www.w3.org/2000/svg"><path fill-rule="evenodd" clip-rule="evenodd" d="M8.003 2.417c-2.8-.002-5.526 1.62-6.255 4.824-.865 3.823 1.502 7.155 3.764 9.335a3.578 3.578 0 0 0 4.967.001l.002-.001c2.27-2.18 4.636-5.504 3.77-9.327-.724-3.204-3.448-4.83-6.248-4.832Zm7.712 4.5c-.908-4.012-4.347-5.998-7.711-6C4.64.914 1.198 2.897.285 6.909c-1.05 4.643 1.849 8.495 4.186 10.748h.001a5.078 5.078 0 0 0 7.048 0c2.347-2.253 5.246-6.096 4.195-10.74ZM8 6.743a1.85 1.85 0 1 0 0 3.7 1.85 1.85 0 0 0 0-3.7Zm-3.35 1.85a3.35 3.35 0 1 1 6.7 0 3.35 3.35 0 0 1-6.7 0Z"/></symbol><symbol viewBox="0 0 49 24" id="slider-arrow" xmlns="http://www.w3.org/2000/svg"><path fill-rule="evenodd" clip-rule="evenodd" d="M36.166 1a1.25 1.25 0 0 0 0 1.768L45.4 12l-9.233 9.233a1.25 1.25 0 0 0 1.768 1.768l10.117-10.117a1.25 1.25 0 0 0 0-1.767L37.934 1a1.25 1.25 0 0 0-1.768 0Z"/><path fill-rule="evenodd" clip-rule="evenodd" d="M48.536 12c0 .69-.56 1.25-1.25 1.25H2a1.25 1.25 0 1 1 0-2.5h45.286c.69 0 1.25.56 1.25 1.25Z"/></symbol></svg>