<?xml version="1.0" standalone="no"?>
<!DOCTYPE svg PUBLIC "-//W3C//DTD SVG 20010904//EN"
 "http://www.w3.org/TR/2001/REC-SVG-20010904/DTD/svg10.dtd">
<svg version="1.0" xmlns="http://www.w3.org/2000/svg"
 width="960.000000pt" height="960.000000pt" viewBox="0 0 960.000000 960.000000"
 preserveAspectRatio="xMidYMid meet">
<metadata>
Created by potrace 1.14, written by Peter Selinger 2001-2017
</metadata>
<g transform="translate(0.000000,960.000000) scale(0.100000,-0.100000)"
fill="#000000" stroke="none">
<path d="M4659 8939 c-19 -11 -40 -28 -46 -37 -9 -15 -843 -1459 -1352 -2342
-109 -189 -179 -321 -176 -330 4 -8 100 -177 214 -375 113 -198 212 -371 218
-385 6 -14 70 -129 143 -255 73 -127 200 -346 281 -487 82 -142 217 -376 301
-520 83 -145 208 -362 278 -483 70 -121 187 -323 260 -450 73 -126 190 -329
260 -450 70 -121 194 -337 277 -480 112 -194 406 -704 460 -797 2 -5 -360 -8
-805 -8 l-809 0 -330 573 c-182 314 -508 878 -723 1252 -216 374 -400 689
-410 700 -9 11 -81 133 -160 270 -78 138 -153 265 -167 283 -31 41 -72 62
-121 62 -74 0 -89 -20 -294 -375 -227 -393 -679 -1177 -1215 -2105 -214 -371
-467 -809 -562 -973 -94 -164 -174 -311 -177 -326 -9 -43 13 -96 53 -131 l35
-31 316 3 317 3 50 27 c28 14 68 44 90 66 32 34 639 1073 1288 2205 98 172
102 178 117 156 8 -12 331 -569 717 -1238 l702 -1216 1740 -3 c958 -1 1741 0
1741 2 0 3 -100 177 -221 388 -122 211 -225 393 -230 405 -5 13 -212 375 -460
805 -249 431 -518 898 -599 1038 -81 140 -274 476 -430 745 -512 887 -582
1008 -710 1230 -70 121 -213 370 -319 553 l-192 333 177 307 c97 169 242 420
321 557 80 138 161 278 181 312 19 34 39 60 42 58 4 -3 39 -60 78 -127 38 -68
126 -220 194 -338 273 -472 438 -757 578 -1000 81 -140 207 -358 280 -485 73
-126 190 -329 260 -450 70 -121 194 -337 277 -480 83 -143 276 -478 430 -745
154 -267 406 -703 560 -970 154 -267 389 -673 522 -903 132 -230 251 -432 264
-450 13 -18 102 -169 198 -336 96 -166 190 -322 210 -345 20 -23 61 -55 90
-71 l54 -30 312 -3 c346 -3 355 -2 393 61 36 59 27 108 -39 221 -55 96 -268
464 -901 1561 -152 264 -336 581 -407 705 -243 420 -539 934 -820 1420 -154
267 -441 764 -638 1105 -197 341 -406 703 -465 805 -319 552 -1067 1847 -1186
2054 -77 132 -151 248 -165 259 -40 29 -106 32 -150 6z"/>
</g>
</svg>
