<svg width="48" height="41" viewBox="0 0 48 41" fill="none" xmlns="http://www.w3.org/2000/svg">
<path fill-rule="evenodd" clip-rule="evenodd" d="M9.91334 2.70649C11.0318 3.98403 11.2388 5.42568 11.2363 6.97337C11.2136 17.2821 11.2288 27.5933 11.2111 37.902C11.2111 38.3918 11.3398 38.4979 11.8145 38.4953C19.9595 38.4802 28.1044 38.4802 36.2494 38.4953C36.6912 38.4953 36.7998 38.3943 36.7947 37.95C36.767 36.0513 36.7872 34.1527 36.7796 32.2541C36.7771 31.7718 36.9487 31.4184 37.4209 31.2719C37.9359 31.1129 38.4737 31.5042 38.4788 32.0849C38.4939 34.4986 38.4939 36.9123 38.4813 39.3235C38.4788 39.8486 38.1329 40.1541 37.5951 40.1844C37.4714 40.192 37.3477 40.1869 37.2214 40.1869C28.4023 40.1869 19.5833 40.1869 10.7642 40.1869C9.75428 40.1869 9.522 39.9521 9.522 38.9321C9.522 31.0194 9.51695 23.1042 9.53462 15.189C9.53462 14.7219 9.42858 14.6109 8.96149 14.6184C6.69171 14.6462 4.4194 14.631 2.14709 14.631C1.27352 14.631 1.00337 14.3609 1.00337 13.4898C1.00337 11.0762 0.995792 8.66246 1.00337 6.25129C1.01347 3.22912 3.22266 1.00478 6.23725 1.00478C15.2331 0.997206 24.2289 0.999731 33.2272 1.00478C36.2544 1.00731 38.4661 3.21397 38.4838 6.23109C38.4914 7.54398 38.4863 8.85686 38.4838 10.1698C38.4813 10.8388 38.1606 11.2276 37.6254 11.2226C37.0927 11.2175 36.7821 10.8312 36.7821 10.1571C36.7796 8.79122 36.7973 7.42531 36.7745 6.0594C36.7468 4.22136 35.2874 2.71911 33.4595 2.71658C25.6529 2.69891 17.8462 2.70649 9.91334 2.70649ZM2.70507 9.20024C2.70507 10.2985 2.7177 11.3993 2.6975 12.4976C2.68993 12.8334 2.76819 12.942 3.12671 12.9394C5.11119 12.9192 7.0982 12.9243 9.08268 12.9369C9.40585 12.9394 9.53462 12.8889 9.53209 12.5178C9.51189 10.3919 9.5321 8.26354 9.51947 6.13767C9.50685 4.21378 8.00712 2.71406 6.12363 2.71154C4.21742 2.70901 2.72527 4.21631 2.71012 6.17302C2.6975 7.17788 2.70507 8.19032 2.70507 9.20024Z" fill="#005060" stroke="#005060" stroke-width="0.4"/>
<path fill-rule="evenodd" clip-rule="evenodd" d="M46.9996 18.471C46.9971 18.8371 46.8481 19.0517 46.6562 19.2436C42.3035 23.5963 37.9508 27.949 33.6006 32.3043C33.391 32.5138 33.1385 32.6275 32.8633 32.7057C30.2274 33.4581 27.5916 34.2054 24.9582 34.9578C24.5694 35.0689 24.1932 35.1371 23.87 34.8063C23.5519 34.4832 23.5898 34.112 23.7034 33.7182C24.4608 31.0848 25.2158 28.4489 25.9606 25.8105C26.0616 25.4571 26.2433 25.1768 26.5009 24.9193C30.7703 20.6574 35.0321 16.3906 39.299 12.1262C39.9504 11.4748 40.2988 11.4748 40.9502 12.1237C42.8085 13.9794 44.6642 15.8376 46.5199 17.6933C46.7598 17.9357 46.9946 18.1781 46.9996 18.471ZM32.9037 30.5546C33.0123 30.4536 33.1057 30.3728 33.1915 30.287C37.0141 26.4619 40.8366 22.6344 44.6667 18.8194C44.9015 18.5871 44.8965 18.4685 44.6642 18.2412C43.2478 16.8475 41.844 15.4463 40.4528 14.0274C40.1928 13.7623 40.0564 13.7597 39.7964 14.0248C38.5441 15.3049 37.2691 16.5622 36.0042 17.8297C33.4718 20.362 30.9369 22.8919 28.4071 25.4268C28.2505 25.5858 27.9905 25.6969 28.296 25.9948C29.7629 27.4365 31.2096 28.8983 32.6664 30.3501C32.7371 30.4208 32.8179 30.4814 32.9037 30.5546ZM27.276 27.4542C26.7609 29.2569 26.2433 31.0646 25.7056 32.9506C27.5865 32.4128 29.3943 31.8978 31.202 31.3802C29.8917 30.0698 28.6166 28.7948 27.276 27.4542Z" fill="#005060" stroke="#005060" stroke-width="0.4"/>
<path fill-rule="evenodd" clip-rule="evenodd" d="M20.5378 7.81651C18.9244 7.81651 17.3136 7.81904 15.7003 7.81651C15.0262 7.81651 14.6424 7.50597 14.6348 6.97324C14.6298 6.43798 15.0135 6.11481 15.6801 6.11481C18.9572 6.11228 22.2369 6.11228 25.5166 6.11481C26.1781 6.11481 26.567 6.44808 26.5543 6.98333C26.5442 7.49839 26.163 7.81651 25.5343 7.81651C23.868 7.81904 22.2016 7.81651 20.5378 7.81651Z" fill="#005060" stroke="#005060" stroke-width="0.4"/>
<path fill-rule="evenodd" clip-rule="evenodd" d="M20.5906 16.3352C22.2393 16.3352 23.888 16.3326 25.5341 16.3377C26.1653 16.3402 26.544 16.6558 26.5541 17.1709C26.5642 17.6885 26.183 18.0369 25.5669 18.0369C22.2519 18.0419 18.9394 18.0369 15.6243 18.0419C15.2178 18.0419 14.8972 17.9207 14.7129 17.5344C14.5589 17.2087 14.6195 16.9108 14.8341 16.6432C15.0411 16.3857 15.3264 16.3326 15.6445 16.3326C17.2957 16.3377 18.9419 16.3352 20.5906 16.3352Z" fill="#005060" stroke="#005060" stroke-width="0.4"/>
<path fill-rule="evenodd" clip-rule="evenodd" d="M18.2 35.0793C17.3668 35.0793 16.5361 35.0819 15.7029 35.0793C15.0288 35.0768 14.6451 34.7713 14.635 34.2411C14.6249 33.7033 15.0112 33.3776 15.6752 33.3776C17.392 33.3751 19.1114 33.3751 20.8283 33.3776C21.4923 33.3776 21.8786 33.7058 21.871 34.2411C21.8634 34.7713 21.4771 35.0768 20.803 35.0793C19.9345 35.0793 19.066 35.0793 18.2 35.0793Z" fill="#005060" stroke="#005060" stroke-width="0.4"/>
<path fill-rule="evenodd" clip-rule="evenodd" d="M17.1845 12.9293C16.6543 12.9293 16.1216 12.9368 15.5914 12.9267C15.0081 12.9166 14.6395 12.5884 14.632 12.0885C14.6244 11.5861 14.993 11.2326 15.5661 11.2275C16.6467 11.2174 17.7248 11.2174 18.8054 11.2275C19.3785 11.2326 19.7472 11.5886 19.7396 12.091C19.7295 12.5884 19.3609 12.9192 18.7776 12.9267C18.2474 12.9343 17.7172 12.9293 17.1845 12.9293Z" fill="#005060" stroke="#005060" stroke-width="0.4"/>
</svg>
