<svg width="52" height="42" viewBox="0 0 52 42" fill="none" xmlns="http://www.w3.org/2000/svg">
<path fill-rule="evenodd" clip-rule="evenodd" d="M37.5932 28.9365C39.1619 28.0525 40.7231 27.1733 42.2844 26.2917C43.5477 25.5776 44.8012 24.8511 46.0718 24.1517C48.2315 22.9623 50.7236 24.2182 50.9798 26.6586C51.1275 28.0697 50.4577 29.1089 49.2658 29.8477C45.9487 31.9064 42.639 33.9749 39.3269 36.0386C36.8495 37.5826 34.3549 39.0971 31.8997 40.6731C30.4123 41.6311 28.8732 41.8872 27.1544 41.4636C22.0593 40.2126 16.9519 39.0084 11.847 37.7845C11.6968 37.7476 11.5441 37.7279 11.357 37.6934C11.357 38.7129 11.3594 39.698 11.357 40.683C11.3545 41.4292 11.1009 41.6877 10.3695 41.6877C7.5843 41.6902 4.79667 41.6902 2.0115 41.6877C1.26534 41.6877 1.00185 41.4365 1.00185 40.7002C0.999384 34.2803 0.999384 27.8579 1.00185 21.438C1.00185 20.6992 1.26288 20.448 2.0115 20.4456C4.77943 20.4431 7.54983 20.4431 10.3178 20.4456C11.1009 20.4456 11.3496 20.6943 11.352 21.4602C11.3545 22.1694 11.3717 22.8811 11.3447 23.5878C11.3323 23.9203 11.4456 23.9843 11.7534 23.9818C13.7432 23.972 15.733 23.9695 17.7227 23.9941C18.8432 24.0089 19.9119 24.297 20.9093 24.8093C22.1529 25.4446 23.458 25.7253 24.8543 25.713C27.7109 25.6835 30.565 25.7032 33.4216 25.7032C35.9211 25.7056 36.9529 26.4986 37.5932 28.9365ZM28.4546 32.5614C26.6889 32.5614 24.9233 32.5614 23.1601 32.5614C22.148 32.5614 22.1701 32.5614 22.1406 31.5395C22.1283 31.1134 22.2366 30.9952 22.6749 30.9977C26.3614 31.0174 30.0479 31.01 33.7344 31.0075C34.0274 31.0075 34.3204 31.0223 34.6061 30.9238C35.5025 30.6185 36.0196 29.7615 35.8743 28.8011C35.7414 27.9219 34.9533 27.2521 34.0077 27.2497C30.996 27.2423 27.9843 27.225 24.975 27.257C23.2807 27.2743 21.685 26.9492 20.1754 26.176C19.4933 25.8263 18.7644 25.612 17.9961 25.5628C15.9398 25.4298 13.8786 25.548 11.8199 25.4938C11.4062 25.4815 11.3471 25.6219 11.3496 25.9913C11.3644 29.2099 11.3619 32.4284 11.3496 35.647C11.3471 35.9869 11.4432 36.1075 11.783 36.1888C17.0406 37.4275 22.3006 38.6686 27.5484 39.9516C28.8265 40.2644 29.942 40.087 31.0502 39.3877C35.2858 36.7158 39.5411 34.0759 43.7915 31.4237C45.3872 30.4264 46.9879 29.434 48.5812 28.4317C49.2313 28.0229 49.5145 27.427 49.3889 26.6636C49.2732 25.9642 48.8398 25.5209 48.1724 25.3215C47.643 25.1639 47.1603 25.3092 46.6875 25.5776C43.6733 27.294 40.6493 28.9956 37.64 30.7219C37.411 30.8549 37.113 30.8253 36.9382 31.0765C36.1625 32.1748 35.074 32.591 33.7565 32.5688C31.9859 32.5393 30.2203 32.5614 28.4546 32.5614ZM9.80062 31.0913C9.80062 28.2371 9.78584 25.3806 9.81539 22.5264C9.82032 22.0487 9.67749 21.9674 9.24162 21.9724C7.1829 21.997 5.12419 21.9921 3.06548 21.9748C2.67393 21.9724 2.54095 22.0512 2.54095 22.4797C2.55573 28.2076 2.55573 33.9331 2.54342 39.661C2.54342 40.0378 2.61976 40.1585 3.02116 40.1535C5.11434 40.1314 7.20753 40.1338 9.30071 40.1511C9.6898 40.1535 9.81785 40.0747 9.81293 39.6536C9.79077 36.7995 9.80062 33.9454 9.80062 31.0913Z" fill="#005060" stroke="#005060" stroke-width="0.5"/>
<path fill-rule="evenodd" clip-rule="evenodd" d="M30.4446 1.00105C36.9926 1.08971 42.1714 6.37439 42.0901 12.8854C42.0113 19.2684 36.67 24.494 30.2993 24.4152C23.7883 24.3339 18.5947 19.032 18.6908 12.5604C18.7893 6.12567 24.0863 0.914864 30.4446 1.00105ZM30.3338 2.60665C25.0196 2.56971 20.3998 6.9063 20.2545 12.452C20.1092 18.0076 24.4877 22.6963 30.0309 22.8712C35.6431 23.0485 40.3491 18.6552 40.5067 13.0455C40.6668 7.32987 36.1356 2.61404 30.3338 2.60665Z" fill="#005060" stroke="#005060" stroke-width="0.5"/>
<path fill-rule="evenodd" clip-rule="evenodd" d="M30.7379 21.3393C30.6344 21.3393 30.5286 21.3245 30.4276 21.3418C30.0188 21.4157 29.8907 21.2236 29.9671 20.8567C30.0804 20.305 29.8341 20.1499 29.3071 20.0711C27.4257 19.7854 25.9925 18.3202 25.7413 16.5299C25.6995 16.227 25.7364 16.0596 26.0885 16.1137C26.1723 16.1261 26.2634 16.1261 26.3471 16.1137C26.9529 16.0202 27.2804 16.1556 27.4725 16.8648C27.8123 18.1158 29.413 18.8644 30.8167 18.5936C32.2548 18.3153 33.2201 17.2564 33.1857 15.998C33.1561 14.8948 32.2327 13.8974 30.9841 13.6462C30.5113 13.5502 30.0188 13.5404 29.5534 13.4271C27.1228 12.8361 25.7389 10.3957 26.6377 8.27045C27.1795 6.98499 28.194 6.21667 29.5189 5.8793C29.9154 5.77833 29.9942 5.62319 29.9893 5.25873C29.972 4.00774 29.9843 4.01513 31.2304 4.09393C31.4569 4.10871 31.5653 4.17273 31.5185 4.3919C31.2993 5.4188 31.7204 5.8596 32.7227 6.21421C34.0845 6.69441 34.7765 7.88383 35.0252 9.30966C35.0794 9.61748 34.9735 9.72091 34.678 9.68151C34.5746 9.66919 34.4687 9.66673 34.3677 9.68151C33.8013 9.76031 33.491 9.65196 33.3359 8.96982C33.1019 7.94539 31.9224 7.29035 30.6788 7.29281C29.4401 7.29528 28.3492 7.9848 28.002 8.98214C27.5439 10.3021 28.5142 11.7181 30.0607 11.9865C30.6049 12.0801 31.159 12.085 31.6934 12.2598C33.4763 12.8385 34.6903 14.3136 34.7272 15.9882C34.7666 17.7095 33.6388 19.2732 31.8731 19.9036C31.5924 20.0046 31.4816 20.1376 31.5284 20.4183C31.5357 20.47 31.5284 20.5218 31.5284 20.5735C31.5259 21.3393 31.5259 21.3393 30.7379 21.3393Z" fill="#005060" stroke="#005060" stroke-width="0.5"/>
</svg>
