<svg width="48" height="48" viewBox="0 0 48 48" fill="none" xmlns="http://www.w3.org/2000/svg">
<path fill-rule="evenodd" clip-rule="evenodd" d="M46.9993 16.091C46.6825 16.4227 46.3742 16.765 46.0447 17.086C45.7045 17.4156 45.3346 17.4305 45.0497 17.1583C44.7648 16.8841 44.7435 16.4716 45.0837 16.1697C45.4026 15.889 45.2729 15.753 45.0412 15.5255C43.6762 14.1797 42.3261 12.819 40.9718 11.4646C40.7273 11.2201 40.4573 10.9863 40.5764 10.5802C40.6954 10.1826 41.0271 10.1167 41.3779 10.0423C42.9363 9.71274 43.9484 8.30739 43.7421 6.78085C43.5338 5.2288 42.1646 4.13174 40.57 4.24017C39.2943 4.32734 38.2036 5.3096 37.9464 6.62352C37.8762 6.97858 37.8018 7.30175 37.4021 7.41656C37.0173 7.52711 36.7877 7.28049 36.5517 7.04449C35.1655 5.65615 33.775 4.27419 32.3952 2.87947C32.2081 2.69237 32.106 2.62859 31.8849 2.85396C30.7963 3.96803 29.6971 5.06935 28.5831 6.15791C28.3322 6.40241 28.4236 6.47044 28.666 6.60864C30.1649 7.45695 30.9409 8.76875 30.8941 10.4739C30.8452 12.2619 29.9289 13.5546 28.3024 14.2987C26.3932 15.1726 23.9631 14.3476 22.934 12.5128C22.8617 12.3831 22.7895 12.2513 22.7129 12.1131C22.4854 12.1981 22.3642 12.3959 22.2112 12.5468C21.1906 13.5588 20.1829 14.5857 19.1538 15.5893C18.9306 15.8061 18.9263 15.9124 19.1517 16.1357C20.5507 17.5113 21.9326 18.9038 23.3189 20.2901C23.5549 20.5261 23.8015 20.7557 23.6867 21.1405C23.5676 21.536 23.2402 21.6104 22.8873 21.6805C21.4075 21.9761 20.4019 23.2836 20.5039 24.7591C20.606 26.2325 21.7987 27.4061 23.2827 27.4954C24.7348 27.5826 26.0509 26.5365 26.323 25.0568C26.3868 24.7123 26.4846 24.4126 26.8567 24.3041C27.216 24.1978 27.4477 24.4147 27.6752 24.6443C29.0721 26.0433 30.4753 27.4337 31.8615 28.8433C32.089 29.0751 32.1974 29.0517 32.41 28.8348C33.7878 27.438 35.1803 26.056 36.5644 24.6677C36.8026 24.4296 37.0343 24.1936 37.4191 24.3169C37.7933 24.4359 37.8741 24.7421 37.9379 25.0823C38.2122 26.5323 39.5346 27.5804 40.9591 27.4911C42.4516 27.3976 43.6337 26.2453 43.7506 24.7676C43.8676 23.3027 42.8555 21.9761 41.3822 21.6784C41.0314 21.6082 40.7018 21.5381 40.5849 21.1384C40.4722 20.7535 40.7124 20.5239 40.9506 20.2879C41.5544 19.6863 42.1561 19.0782 42.762 18.4765C43.1574 18.0832 43.5614 18.0258 43.8591 18.3128C44.1716 18.6126 44.1142 19.0229 43.6996 19.4417C43.3828 19.7607 43.0724 20.0838 42.745 20.3921C42.5685 20.5558 42.5579 20.6281 42.7939 20.7599C44.6797 21.806 45.5302 23.7875 44.903 25.8222C44.4203 27.3848 43.3403 28.4032 41.7308 28.7392C40.1129 29.0772 38.7224 28.5903 37.602 27.3615C37.3171 27.0489 37.1193 26.6811 36.9152 26.3133C36.7303 26.3494 36.6495 26.5025 36.5389 26.6131C34.4511 28.6966 32.3654 30.7845 30.2797 32.8702C30.184 32.9658 30.0926 33.0658 29.9905 33.1529C29.6716 33.4251 29.2826 33.4272 29.0253 33.1636C28.7659 32.8978 28.7595 32.5023 29.0529 32.1983C29.6886 31.5414 30.3413 30.9057 30.9877 30.2572C31.0855 30.1594 31.2194 30.085 31.043 29.9128C29.829 28.7158 28.6256 27.5082 27.3988 26.2835C26.2486 28.3437 24.5562 29.2388 22.2452 28.6669C20.5592 28.2502 19.3877 26.781 19.1836 24.9675C19.0156 23.4728 19.7194 21.587 21.6988 20.626C21.5266 20.339 21.2587 20.1391 21.0312 19.9095C20.1042 18.9719 19.1581 18.0534 18.246 17.1052C17.9909 16.8415 17.8633 16.8777 17.6337 17.1179C17.015 17.7685 16.3708 18.3978 15.7329 19.0293C15.3417 19.4184 14.9293 19.4566 14.6359 19.1483C14.3574 18.8549 14.4041 18.4552 14.7762 18.0832C17.083 15.7721 19.3898 13.4632 21.7009 11.1585C22.4854 10.3761 23.4018 10.5313 23.9312 11.5199C24.737 13.0252 26.0828 13.6396 27.5838 13.1272C28.7553 12.7275 29.425 11.858 29.5441 10.6376C29.6631 9.42997 29.1465 8.49236 28.1217 7.83965C27.9835 7.75248 27.8283 7.69082 27.6859 7.61003C26.8354 7.14016 26.676 6.20681 27.3521 5.50945C28.1642 4.67177 28.9955 3.84897 29.8268 3.03042C30.5178 2.35007 31.1684 1.62932 31.9062 1C32.0571 1 32.2059 1 32.3548 1C32.5823 1.21048 32.8183 1.41246 33.0372 1.63145C34.2023 2.7923 35.3632 3.9574 36.5283 5.11825C36.641 5.23093 36.7281 5.37976 36.8982 5.42653C37.9421 3.25791 40.1405 2.63072 41.7521 2.97514C43.3722 3.3217 44.7286 4.72067 45.0348 6.3854C45.3303 7.9821 44.7095 10.0487 42.492 11.15C42.7131 11.3477 42.9215 11.5135 43.1085 11.7049C44.4012 13.0231 45.7555 14.2796 46.9972 15.6467C46.9993 15.7912 46.9993 15.9422 46.9993 16.091Z" fill="#005060" stroke="#005060" stroke-width="0.7"/>
<path fill-rule="evenodd" clip-rule="evenodd" d="M15.6445 46.9981C14.6793 46.1519 13.8161 45.2016 12.8976 44.3043C12.3193 43.7409 11.7517 43.1669 11.184 42.5907C10.3782 41.7764 10.5185 40.8771 11.5284 40.3307C13.0188 39.5249 13.6248 38.2088 13.1379 36.7206C12.7467 35.5236 11.8771 34.8432 10.6376 34.7199C9.42997 34.6009 8.49661 35.1196 7.84178 36.1401C7.76949 36.2528 7.71634 36.3783 7.65255 36.4952C7.13166 37.469 6.21106 37.6071 5.41803 36.8226C4.63137 36.0445 3.85322 35.2557 3.06869 34.4754C2.38196 33.7929 1.68885 33.1168 1 32.4386C1 32.2579 1 32.0793 1 31.8986C2.35432 30.5273 3.70652 29.1559 5.06509 27.7888C5.19053 27.6634 5.35212 27.5741 5.53921 27.4338C3.43651 26.2729 2.52441 24.6188 3.03042 22.3588C3.4195 20.6175 4.88012 19.4142 6.68093 19.1845C8.22022 18.9868 10.1465 19.7033 11.1287 21.738C11.5603 21.3 11.9749 20.8748 12.398 20.4559C12.7871 20.0732 13.1549 20.0286 13.4589 20.3177C13.7736 20.6154 13.7353 21.013 13.342 21.4106C12.6893 22.0696 12.0281 22.7224 11.3732 23.3814C11.1542 23.6026 10.9246 23.7854 10.5866 23.6812C10.2379 23.5728 10.1273 23.2985 10.0635 22.969C9.83605 21.7805 9.15145 20.9598 7.98422 20.6196C6.83401 20.2837 5.81561 20.5793 5.00769 21.4658C4.23804 22.3099 4.03394 23.3028 4.40813 24.3828C4.77382 25.4438 5.53709 26.0773 6.63203 26.3133C6.82338 26.3537 7.01685 26.3707 7.17843 26.4919C7.54625 26.7662 7.55263 27.1935 7.17418 27.5762C6.33225 28.4288 5.48181 29.2729 4.63562 30.119C4.04244 30.7122 3.45564 31.3097 2.85396 31.8943C2.68812 32.0559 2.63709 32.1516 2.83269 32.3429C3.96378 33.4549 5.08636 34.5775 6.20043 35.7085C6.40879 35.919 6.46832 35.8531 6.59376 35.632C8.01399 33.1487 11.0097 32.5981 13.1761 34.4116C15.3767 36.255 15.028 39.9246 12.5192 41.3236C12.3895 41.3958 12.2577 41.4681 12.1301 41.5404C12.1386 41.7041 12.2726 41.77 12.3619 41.8593C13.4398 42.9415 14.5283 44.0131 15.5956 45.1059C15.8104 45.3249 15.9146 45.3376 16.1399 45.1101C17.5155 43.7112 18.9081 42.3313 20.2943 40.943C20.5303 40.707 20.7578 40.4604 21.1448 40.5731C21.5445 40.6879 21.6167 41.0153 21.689 41.3682C21.9931 42.8756 23.2964 43.8621 24.808 43.7516C26.2474 43.6453 27.4146 42.4483 27.5018 40.9834C27.5911 39.5249 26.5557 38.2195 25.0716 37.9388C24.7293 37.8729 24.4274 37.7879 24.3148 37.4115C24.2063 37.0501 24.4189 36.8205 24.6464 36.5909C25.3906 35.851 26.1283 35.109 26.8703 34.3691C27.1531 34.0863 27.4699 33.9694 27.8292 34.2288C28.1949 34.4924 28.2013 34.9283 27.8292 35.3131C27.3211 35.8382 26.798 36.3506 26.2601 36.8885C27.2211 37.3648 27.9674 38.0005 28.4054 38.9593C29.1367 40.5603 29.0198 42.0953 27.927 43.4688C26.8151 44.8678 25.3119 45.3738 23.5621 44.9804C22.3162 44.6998 21.3765 43.9642 20.7833 42.8288C20.6302 42.5354 20.5558 42.5822 20.3645 42.7778C19.1441 44.0131 17.9131 45.2377 16.6821 46.4645C16.495 46.6516 16.2909 46.8238 16.0953 47.0024C15.9443 46.9981 15.7934 46.9981 15.6445 46.9981Z" fill="#005060" stroke="#005060" stroke-width="0.7"/>
</svg>
