<svg width="34" height="27" viewBox="0 0 34 27" fill="none" xmlns="http://www.w3.org/2000/svg">
<path d="M25.0449 26.5244C23.5547 26.5244 22.2217 26.0732 21.0459 25.1709C19.8838 24.2686 19.1045 23.0996 18.708 21.6641C18.4346 20.666 18.2979 19.6133 18.2979 18.5059C18.2979 16.8242 18.626 15.1221 19.2822 13.3994C19.9385 11.6631 20.8408 10.0293 21.9893 8.49805C23.1377 6.9668 24.4639 5.53809 25.9678 4.21191C27.4854 2.87207 29.1123 1.69629 30.8486 0.68457L33.8223 3.6582C30.7324 6.13281 28.6201 8.04688 27.4854 9.40039C26.3643 10.7539 25.7832 12.1006 25.7422 13.4404C27.4102 13.6318 28.8047 14.3496 29.9258 15.5938C31.0469 16.8379 31.6074 18.2939 31.6074 19.9619C31.6074 21.7803 30.9648 23.332 29.6797 24.6172C28.4082 25.8887 26.8633 26.5244 25.0449 26.5244ZM6.99805 26.5244C5.50781 26.5244 4.1748 26.0732 2.99902 25.1709C1.83691 24.2686 1.05762 23.0996 0.661133 21.6641C0.387695 20.666 0.250977 19.6133 0.250977 18.5059C0.250977 16.8242 0.579102 15.1221 1.23535 13.3994C1.8916 11.6631 2.79395 10.0293 3.94238 8.49805C5.09082 6.9668 6.41699 5.53809 7.9209 4.21191C9.43848 2.87207 11.0654 1.69629 12.8018 0.68457L15.7754 3.6582C12.6855 6.13281 10.5732 8.04688 9.43848 9.40039C8.31738 10.7539 7.73633 12.1006 7.69531 13.4404C9.36328 13.6318 10.7578 14.3496 11.8789 15.5938C13 16.8379 13.5605 18.2939 13.5605 19.9619C13.5605 21.7803 12.918 23.332 11.6328 24.6172C10.3613 25.8887 8.81641 26.5244 6.99805 26.5244Z" fill="#F2615C"/>
</svg>
