<svg width="193" height="40" viewBox="0 0 193 40" fill="none" xmlns="http://www.w3.org/2000/svg">
<path d="M20.1202 35.9133L12.2578 25.0541L23.3753 5.74121L40.3369 35.8861L20.1202 35.9133Z" fill="#00B5D5"/>
<path d="M22.8811 7.07243L41.3173 39.0045C41.6095 39.5074 42.1464 39.8132 42.724 39.8132H45.0616C45.5985 39.8132 45.9383 39.2288 45.6664 38.7667L23.4859 0.351668C23.2141 -0.117223 22.5413 -0.117223 22.2763 0.351668L14.8828 13.1612L28.0253 35.9262H20.1221L11.5326 21.0508C11.2608 20.5819 10.588 20.5819 10.323 21.0508L0.095764 38.7667C-0.176056 39.2356 0.163719 39.8132 0.700564 39.8132H3.03822C3.61584 39.8132 4.15268 39.5006 4.44489 39.0045L10.9278 27.7716L17.8728 39.8064H34.7461L19.3678 13.1612L22.8811 7.07243Z" fill="white"/>
<path d="M46.8805 26.7963L53.1065 13.4071C53.1685 13.291 53.3079 13.1903 53.4473 13.1903H53.6486C53.788 13.1903 53.9274 13.291 53.9893 13.4071L60.2154 26.7963C60.3316 27.0518 60.1767 27.3151 59.8747 27.3151H57.6677C57.3115 27.3151 57.1488 27.199 56.9707 26.8195L56.2583 25.2475H50.8453L50.1329 26.8428C50.0322 27.0828 49.8154 27.3229 49.4127 27.3229H47.2212C46.9192 27.3151 46.7643 27.0596 46.8805 26.7963ZM55.058 22.5372L53.5479 19.2538H53.5324L52.0379 22.5372H55.058Z" fill="white"/>
<path d="M62.7891 13.5465C62.7891 13.3452 62.9672 13.1903 63.1685 13.1903H63.6641L71.6016 20.8335H71.6248V13.7711C71.6248 13.5698 71.7874 13.3917 72.0043 13.3917H74.3894C74.5907 13.3917 74.7688 13.5698 74.7688 13.7711V27.1603C74.7688 27.3616 74.5907 27.5165 74.3894 27.5165H74.0719C74.0099 27.5165 73.8551 27.4545 73.8163 27.4158L65.9563 19.5171H65.9408V26.9357C65.9408 27.137 65.7782 27.3151 65.5614 27.3151H63.1917C62.9904 27.3151 62.8123 27.137 62.8123 26.9357L62.7891 13.5465Z" fill="white"/>
<path d="M79.1211 13.5465C79.1211 13.3452 79.2992 13.1903 79.5005 13.1903H79.9962L87.9336 20.8335H87.9569V13.7711C87.9569 13.5698 88.1195 13.3917 88.3363 13.3917H90.7214C90.9228 13.3917 91.1009 13.5698 91.1009 13.7711V27.1603C91.1009 27.3616 90.9228 27.5165 90.7214 27.5165H90.4039C90.342 27.5165 90.1871 27.4545 90.1484 27.4158L82.2883 19.5171H82.2651V26.9357C82.2651 27.137 82.1025 27.3151 81.8857 27.3151H79.516C79.3147 27.3151 79.1366 27.137 79.1366 26.9357L79.1211 13.5465Z" fill="white"/>
<path d="M95.2188 13.763C95.2188 13.5617 95.3969 13.3835 95.5982 13.3835H98.0453C98.2621 13.3835 98.4247 13.5617 98.4247 13.763V21.8244C98.4247 23.2183 99.4624 24.3334 100.872 24.3334C102.304 24.3334 103.358 23.2183 103.358 21.8244V13.763C103.358 13.5617 103.52 13.3835 103.737 13.3835H106.184C106.385 13.3835 106.564 13.5617 106.564 13.763V21.9792C106.564 25.0071 104.016 27.5084 100.872 27.5084C97.751 27.5084 95.2188 24.9994 95.2188 21.9792V13.763Z" fill="white"/>
<path d="M110.723 13.763C110.723 13.5617 110.901 13.3835 111.102 13.3835H113.487C113.689 13.3835 113.867 13.5617 113.867 13.763V26.9353C113.867 27.1367 113.689 27.3148 113.487 27.3148H111.102C110.901 27.3148 110.723 27.1367 110.723 26.9353V13.763Z" fill="white"/>
<path d="M120.038 16.3107H117.196C116.979 16.3107 116.816 16.1326 116.816 15.9313V13.763C116.816 13.5617 116.979 13.3835 117.196 13.3835H126.032C126.248 13.3835 126.411 13.5617 126.411 13.763V15.9313C126.411 16.1326 126.248 16.3107 126.032 16.3107H123.19V26.9353C123.19 27.1367 123.011 27.3148 122.81 27.3148H120.425C120.224 27.3148 120.046 27.1367 120.046 26.9353V16.3107H120.038Z" fill="white"/>
<path d="M132.591 20.6096L128.193 13.9654C128.03 13.7098 128.193 13.3923 128.51 13.3923H131.097C131.259 13.3923 131.352 13.493 131.414 13.5704L134.179 17.6515L136.943 13.5704C137.005 13.493 137.083 13.3923 137.261 13.3923H139.847C140.165 13.3923 140.328 13.7098 140.165 13.9654L135.712 20.5941V26.9441C135.712 27.1455 135.534 27.3236 135.333 27.3236H132.963C132.746 27.3236 132.584 27.1455 132.584 26.9441V20.6096H132.591Z" fill="white"/>
<path d="M142.022 23.7393C143.06 23.7393 143.935 24.6143 143.935 25.652C143.935 26.6664 143.06 27.526 142.022 27.526C141.008 27.526 140.148 26.6742 140.148 25.652C140.156 24.6143 141.008 23.7393 142.022 23.7393Z" fill="white"/>
<path d="M152.809 13.1903C154.8 13.1903 156.271 13.8098 157.626 15.0411C157.804 15.2037 157.804 15.436 157.649 15.5987L156.101 17.2094C155.961 17.3488 155.744 17.3488 155.605 17.2094C154.869 16.5512 153.894 16.1949 152.918 16.1949C150.672 16.1949 149.015 18.0689 149.015 20.2914C149.015 22.4984 150.688 24.3337 152.933 24.3337C153.87 24.3337 154.885 23.993 155.597 23.3813C155.737 23.2651 155.992 23.2651 156.116 23.4045L157.665 25.0539C157.804 25.1933 157.781 25.4489 157.642 25.5883C156.286 26.9047 154.575 27.5165 152.809 27.5165C148.829 27.5165 145.631 24.357 145.631 20.3766C145.623 16.3963 148.829 13.1903 152.809 13.1903Z" fill="white"/>
<path d="M167.058 13.1903C171.038 13.1903 174.221 16.3963 174.221 20.3689C174.221 24.3415 171.038 27.5087 167.058 27.5087C163.077 27.5087 159.918 24.3492 159.918 20.3689C159.918 16.3885 163.077 13.1903 167.058 13.1903ZM167.058 24.3337C169.249 24.3337 171.038 22.5449 171.038 20.3766C171.038 18.1851 169.249 16.3808 167.058 16.3808C164.89 16.3808 163.101 18.1929 163.101 20.3766C163.093 22.5372 164.89 24.3337 167.058 24.3337Z" fill="white"/>
<path d="M178.96 13.5078C178.983 13.3297 179.161 13.1903 179.316 13.1903H179.634C179.734 13.1903 179.912 13.2678 179.974 13.3917L184.59 21.9874H184.628L189.244 13.3917C189.306 13.2755 189.484 13.1903 189.584 13.1903H189.902C190.065 13.1903 190.243 13.3297 190.258 13.5078L192.504 26.8815C192.543 27.137 192.365 27.3151 192.124 27.3151H189.778C189.6 27.3151 189.422 27.1525 189.399 26.9976L188.5 20.849H188.462L185.116 27.2919C185.054 27.4081 184.876 27.5087 184.776 27.5087H184.419C184.303 27.5087 184.141 27.4081 184.079 27.2919L180.718 20.849H180.679L179.804 26.9976C179.781 27.1603 179.626 27.3151 179.424 27.3151H177.078C176.838 27.3151 176.66 27.137 176.699 26.8815L178.96 13.5078Z" fill="white"/>
</svg>
