<svg width="359" height="313" viewBox="0 0 359 313" fill="none" xmlns="http://www.w3.org/2000/svg">
<path opacity="0.05" d="M179.5 55.6014L324.13 306.642C326.423 310.596 330.634 313 335.165 313H353.504C357.716 313 360.381 308.406 358.249 304.773L184.245 2.76471C182.112 -0.92157 176.835 -0.92157 174.755 2.76471L116.754 103.47L219.856 282.441H157.856L90.4721 165.495C88.3397 161.809 83.062 161.809 80.9829 165.495L0.751259 304.773C-1.38114 308.459 1.28436 313 5.49585 313H23.8345C28.3659 313 32.5774 310.542 34.8697 306.642L85.7275 218.332L140.21 312.947H272.579L151.939 103.47L179.5 55.6014Z" fill="#00B5D6"/>
</svg>
