<svg width="249" height="52" viewBox="0 0 249 52" fill="none" xmlns="http://www.w3.org/2000/svg">
<g id="Group 1000006208">
<path id="Vector" d="M25.9851 46.3844L15.832 32.3614L30.1885 7.42188L52.0917 46.3493L25.9851 46.3844Z" fill="#00B5D5"/>
<path id="Vector_2" d="M29.5474 9.13294L53.3549 50.3682C53.7322 51.0176 54.4254 51.4125 55.1713 51.4125H58.1901C58.8833 51.4125 59.3221 50.6578 58.9711 50.0611L30.3284 0.454124C29.9774 -0.151375 29.1086 -0.151375 28.7664 0.454124L19.2188 16.9956L36.1903 46.393H25.9846L14.8926 27.1838C14.5415 26.5783 13.6728 26.5783 13.3305 27.1838L0.123664 50.0611C-0.227349 50.6666 0.211417 51.4125 0.904669 51.4125H3.92338C4.66929 51.4125 5.36254 51.0088 5.73988 50.3682L14.1115 35.8626L23.0799 51.4037H44.8691L25.0105 16.9956L29.5474 9.13294Z" fill="#005060"/>
<path id="Vector_3" d="M60.5411 34.6L68.5811 17.31C68.6611 17.16 68.8411 17.03 69.0211 17.03H69.2811C69.4611 17.03 69.6411 17.16 69.7211 17.31L77.7611 34.6C77.9111 34.93 77.7111 35.27 77.3211 35.27H74.4711C74.0111 35.27 73.8011 35.12 73.5711 34.63L72.6511 32.6H65.6611L64.7411 34.66C64.6111 34.97 64.3311 35.28 63.8111 35.28H60.9811C60.5911 35.27 60.3911 34.94 60.5411 34.6ZM71.1011 29.1L69.1511 24.86H69.1311L67.2011 29.1H71.1011Z" fill="#005060"/>
<path id="Vector_4" d="M81.0811 17.49C81.0811 17.23 81.3111 17.03 81.5711 17.03H82.2111L92.4611 26.9H92.4911V17.78C92.4911 17.52 92.701 17.29 92.981 17.29H96.0611C96.3211 17.29 96.5511 17.52 96.5511 17.78V35.07C96.5511 35.33 96.3211 35.53 96.0611 35.53H95.6511C95.5711 35.53 95.3711 35.45 95.3211 35.4L85.1711 25.2H85.1511V34.78C85.1511 35.04 84.9411 35.27 84.6611 35.27H81.6011C81.3411 35.27 81.1111 35.04 81.1111 34.78L81.0811 17.49Z" fill="#005060"/>
<path id="Vector_5" d="M102.171 17.49C102.171 17.23 102.401 17.03 102.661 17.03H103.301L113.551 26.9H113.581V17.78C113.581 17.52 113.791 17.29 114.071 17.29H117.151C117.411 17.29 117.641 17.52 117.641 17.78V35.07C117.641 35.33 117.411 35.53 117.151 35.53H116.741C116.661 35.53 116.461 35.45 116.411 35.4L106.261 25.2H106.231V34.78C106.231 35.04 106.021 35.27 105.741 35.27H102.681C102.421 35.27 102.191 35.04 102.191 34.78L102.171 17.49Z" fill="#005060"/>
<path id="Vector_6" d="M122.961 17.77C122.961 17.51 123.191 17.28 123.451 17.28H126.611C126.891 17.28 127.101 17.51 127.101 17.77V28.18C127.101 29.98 128.441 31.42 130.261 31.42C132.111 31.42 133.471 29.98 133.471 28.18V17.77C133.471 17.51 133.681 17.28 133.961 17.28H137.121C137.381 17.28 137.611 17.51 137.611 17.77V28.38C137.611 32.29 134.321 35.52 130.261 35.52C126.231 35.52 122.961 32.28 122.961 28.38V17.77Z" fill="#005060"/>
<path id="Vector_7" d="M142.98 17.77C142.98 17.51 143.21 17.28 143.47 17.28H146.55C146.81 17.28 147.04 17.51 147.04 17.77V34.78C147.04 35.04 146.81 35.27 146.55 35.27H143.47C143.21 35.27 142.98 35.04 142.98 34.78V17.77Z" fill="#005060"/>
<path id="Vector_8" d="M155.011 21.06H151.341C151.061 21.06 150.851 20.83 150.851 20.57V17.77C150.851 17.51 151.061 17.28 151.341 17.28H162.751C163.031 17.28 163.241 17.51 163.241 17.77V20.57C163.241 20.83 163.031 21.06 162.751 21.06H159.081V34.78C159.081 35.04 158.851 35.27 158.591 35.27H155.511C155.251 35.27 155.021 35.04 155.021 34.78V21.06H155.011Z" fill="#005060"/>
<path id="Vector_9" d="M171.221 26.61L165.541 18.03C165.331 17.7 165.541 17.29 165.951 17.29H169.291C169.501 17.29 169.621 17.42 169.701 17.52L173.271 22.79L176.841 17.52C176.921 17.42 177.021 17.29 177.251 17.29H180.591C181.001 17.29 181.211 17.7 181.001 18.03L175.251 26.59V34.79C175.251 35.05 175.021 35.28 174.761 35.28H171.701C171.421 35.28 171.211 35.05 171.211 34.79V26.61H171.221Z" fill="#005060"/>
<path id="Vector_10" d="M183.4 30.6499C184.74 30.6499 185.87 31.7799 185.87 33.1199C185.87 34.4299 184.74 35.5399 183.4 35.5399C182.09 35.5399 180.98 34.4399 180.98 33.1199C180.99 31.7799 182.09 30.6499 183.4 30.6499Z" fill="#005060"/>
<path id="Vector_11" d="M197.331 17.03C199.901 17.03 201.801 17.83 203.551 19.42C203.781 19.63 203.781 19.93 203.581 20.14L201.581 22.22C201.401 22.4 201.121 22.4 200.941 22.22C199.991 21.37 198.731 20.91 197.471 20.91C194.571 20.91 192.431 23.33 192.431 26.2C192.431 29.05 194.591 31.42 197.491 31.42C198.701 31.42 200.011 30.98 200.931 30.19C201.111 30.04 201.441 30.04 201.601 30.22L203.601 32.35C203.781 32.53 203.751 32.86 203.571 33.04C201.821 34.74 199.611 35.53 197.331 35.53C192.191 35.53 188.061 31.45 188.061 26.31C188.051 21.17 192.191 17.03 197.331 17.03Z" fill="#005060"/>
<path id="Vector_12" d="M215.731 17.03C220.871 17.03 224.981 21.17 224.981 26.3C224.981 31.43 220.871 35.52 215.731 35.52C210.591 35.52 206.511 31.44 206.511 26.3C206.511 21.16 210.591 17.03 215.731 17.03ZM215.731 31.42C218.561 31.42 220.871 29.11 220.871 26.31C220.871 23.48 218.561 21.15 215.731 21.15C212.931 21.15 210.621 23.49 210.621 26.31C210.611 29.1 212.931 31.42 215.731 31.42Z" fill="#005060"/>
<path id="Vector_13" d="M231.101 17.44C231.131 17.21 231.361 17.03 231.561 17.03H231.971C232.101 17.03 232.331 17.13 232.411 17.29L238.371 28.39H238.421L244.381 17.29C244.461 17.14 244.691 17.03 244.821 17.03H245.231C245.441 17.03 245.671 17.21 245.691 17.44L248.591 34.71C248.641 35.04 248.411 35.27 248.101 35.27H245.071C244.841 35.27 244.611 35.06 244.581 34.86L243.421 26.92H243.371L239.051 35.24C238.971 35.39 238.741 35.52 238.611 35.52H238.151C238.001 35.52 237.791 35.39 237.711 35.24L233.371 26.92H233.321L232.191 34.86C232.161 35.07 231.961 35.27 231.701 35.27H228.671C228.361 35.27 228.131 35.04 228.181 34.71L231.101 17.44Z" fill="#005060"/>
</g>
</svg>
