<svg width="73" height="69" viewBox="0 0 73 69" fill="none" xmlns="http://www.w3.org/2000/svg">
<g opacity="0.3">
<circle cx="1.05036" cy="1.05036" r="1.05036" transform="matrix(-1 0 0 1 72.999 0)" fill="#005060"/>
<circle cx="1.05036" cy="1.05036" r="1.05036" transform="matrix(-1 0 0 1 58.8193 0)" fill="#005060"/>
<circle cx="1.05036" cy="1.05036" r="1.05036" transform="matrix(-1 0 0 1 44.6396 0)" fill="#005060"/>
<circle cx="1.05036" cy="1.05036" r="1.05036" transform="matrix(-1 0 0 1 30.46 0)" fill="#005060"/>
<circle cx="1.05036" cy="1.05036" r="1.05036" transform="matrix(-1 0 0 1 16.2803 0)" fill="#005060"/>
<circle cx="1.05036" cy="1.05036" r="1.05036" transform="matrix(-1 0 0 1 2.10059 0)" fill="#005060"/>
<circle cx="1.05036" cy="1.05036" r="1.05036" transform="matrix(-1 0 0 1 72.999 11.0288)" fill="#005060"/>
<circle cx="1.05036" cy="1.05036" r="1.05036" transform="matrix(-1 0 0 1 58.8193 11.0288)" fill="#005060"/>
<circle cx="1.05036" cy="1.05036" r="1.05036" transform="matrix(-1 0 0 1 44.6396 11.0288)" fill="#005060"/>
<circle cx="1.05036" cy="1.05036" r="1.05036" transform="matrix(-1 0 0 1 30.46 11.0288)" fill="#005060"/>
<circle cx="1.05036" cy="1.05036" r="1.05036" transform="matrix(-1 0 0 1 16.2803 11.0288)" fill="#005060"/>
<circle cx="1.05036" cy="1.05036" r="1.05036" transform="matrix(-1 0 0 1 2.10059 11.0288)" fill="#005060"/>
<circle cx="1.05036" cy="1.05036" r="1.05036" transform="matrix(-1 0 0 1 72.999 22.0576)" fill="#005060"/>
<circle cx="1.05036" cy="1.05036" r="1.05036" transform="matrix(-1 0 0 1 58.8193 22.0576)" fill="#005060"/>
<circle cx="1.05036" cy="1.05036" r="1.05036" transform="matrix(-1 0 0 1 44.6396 22.0576)" fill="#005060"/>
<circle cx="1.05036" cy="1.05036" r="1.05036" transform="matrix(-1 0 0 1 30.46 22.0576)" fill="#005060"/>
<circle cx="1.05036" cy="1.05036" r="1.05036" transform="matrix(-1 0 0 1 16.2803 22.0576)" fill="#005060"/>
<circle cx="1.05036" cy="1.05036" r="1.05036" transform="matrix(-1 0 0 1 2.10059 22.0576)" fill="#005060"/>
<circle cx="1.05036" cy="1.05036" r="1.05036" transform="matrix(-1 0 0 1 72.999 33.0864)" fill="#005060"/>
<circle cx="1.05036" cy="1.05036" r="1.05036" transform="matrix(-1 0 0 1 58.8193 33.0864)" fill="#005060"/>
<circle cx="1.05036" cy="1.05036" r="1.05036" transform="matrix(-1 0 0 1 44.6396 33.0864)" fill="#005060"/>
<circle cx="1.05036" cy="1.05036" r="1.05036" transform="matrix(-1 0 0 1 30.46 33.0864)" fill="#005060"/>
<circle cx="1.05036" cy="1.05036" r="1.05036" transform="matrix(-1 0 0 1 16.2803 33.0864)" fill="#005060"/>
<circle cx="1.05036" cy="1.05036" r="1.05036" transform="matrix(-1 0 0 1 2.10059 33.0864)" fill="#005060"/>
<circle cx="1.05036" cy="1.05036" r="1.05036" transform="matrix(-1 0 0 1 72.999 44.1152)" fill="#005060"/>
<circle cx="1.05036" cy="1.05036" r="1.05036" transform="matrix(-1 0 0 1 58.8193 44.1152)" fill="#005060"/>
<circle cx="1.05036" cy="1.05036" r="1.05036" transform="matrix(-1 0 0 1 44.6396 44.1152)" fill="#005060"/>
<circle cx="1.05036" cy="1.05036" r="1.05036" transform="matrix(-1 0 0 1 30.46 44.1152)" fill="#005060"/>
<circle cx="1.05036" cy="1.05036" r="1.05036" transform="matrix(-1 0 0 1 16.2803 44.1152)" fill="#005060"/>
<circle cx="1.05036" cy="1.05036" r="1.05036" transform="matrix(-1 0 0 1 2.10059 44.1152)" fill="#005060"/>
<circle cx="1.05036" cy="1.05036" r="1.05036" transform="matrix(-1 0 0 1 72.999 55.1438)" fill="#005060"/>
<circle cx="1.05036" cy="1.05036" r="1.05036" transform="matrix(-1 0 0 1 58.8193 55.1438)" fill="#005060"/>
<circle cx="1.05036" cy="1.05036" r="1.05036" transform="matrix(-1 0 0 1 44.6396 55.1438)" fill="#005060"/>
<circle cx="1.05036" cy="1.05036" r="1.05036" transform="matrix(-1 0 0 1 30.46 55.1438)" fill="#005060"/>
<circle cx="1.05036" cy="1.05036" r="1.05036" transform="matrix(-1 0 0 1 16.2803 55.1438)" fill="#005060"/>
<circle cx="1.05036" cy="1.05036" r="1.05036" transform="matrix(-1 0 0 1 2.10059 55.1438)" fill="#005060"/>
<circle cx="1.05036" cy="1.05036" r="1.05036" transform="matrix(-1 0 0 1 72.999 66.1726)" fill="#005060"/>
<circle cx="1.05036" cy="1.05036" r="1.05036" transform="matrix(-1 0 0 1 58.8193 66.1726)" fill="#005060"/>
<circle cx="1.05036" cy="1.05036" r="1.05036" transform="matrix(-1 0 0 1 44.6396 66.1726)" fill="#005060"/>
<circle cx="1.05036" cy="1.05036" r="1.05036" transform="matrix(-1 0 0 1 30.46 66.1726)" fill="#005060"/>
<circle cx="1.05036" cy="1.05036" r="1.05036" transform="matrix(-1 0 0 1 16.2803 66.1726)" fill="#005060"/>
<circle cx="1.05036" cy="1.05036" r="1.05036" transform="matrix(-1 0 0 1 2.10059 66.1726)" fill="#005060"/>
</g>
</svg>
